<mxfile host="drawio-plugin" modified="2022-02-13T14:16:03.759Z" agent="5.0 (Macintosh; Intel Mac OS X 12_0_1) AppleWebKit/537.36 (KHTML, like Gecko) Chrome/89.0.4389.114 Safari/537.36" etag="_toGZqWDvkI6vgkYEoXQ" version="15.5.4" type="embed"><diagram id="23iRSUPoRavnBvh4doch" name="Page-1"><mxGraphModel dx="1595" dy="778" grid="1" gridSize="10" guides="1" tooltips="1" connect="1" arrows="1" fold="1" page="1" pageScale="1" pageWidth="827" pageHeight="1169" math="0" shadow="0"><root><mxCell id="0"/><mxCell id="1" parent="0"/><mxCell id="35" style="edgeStyle=orthogonalEdgeStyle;rounded=0;orthogonalLoop=1;jettySize=auto;html=1;" edge="1" parent="1" source="36" target="42"><mxGeometry relative="1" as="geometry"/></mxCell><mxCell id="36" value="START" style="rounded=1;whiteSpace=wrap;html=1;" vertex="1" parent="1"><mxGeometry x="299" y="30" width="120" height="60" as="geometry"/></mxCell><mxCell id="37" value="END" style="rounded=1;whiteSpace=wrap;html=1;" vertex="1" parent="1"><mxGeometry x="455" y="640" width="120" height="60" as="geometry"/></mxCell><mxCell id="57" value="NO" style="edgeStyle=orthogonalEdgeStyle;rounded=0;orthogonalLoop=1;jettySize=auto;html=1;" edge="1" parent="1" source="40" target="55"><mxGeometry relative="1" as="geometry"/></mxCell><mxCell id="59" value="YES" style="edgeStyle=orthogonalEdgeStyle;rounded=0;orthogonalLoop=1;jettySize=auto;html=1;" edge="1" parent="1" source="40" target="58"><mxGeometry relative="1" as="geometry"/></mxCell><mxCell id="40" value="if i is smaller than size of intik" style="rhombus;whiteSpace=wrap;html=1;" vertex="1" parent="1"><mxGeometry x="319" y="510" width="80" height="80" as="geometry"/></mxCell><mxCell id="41" style="edgeStyle=orthogonalEdgeStyle;rounded=0;orthogonalLoop=1;jettySize=auto;html=1;entryX=0.5;entryY=0;entryDx=0;entryDy=0;" edge="1" parent="1" source="42" target="44"><mxGeometry relative="1" as="geometry"/></mxCell><mxCell id="42" value="Input value into intik" style="shape=parallelogram;perimeter=parallelogramPerimeter;whiteSpace=wrap;html=1;fixedSize=1;" vertex="1" parent="1"><mxGeometry x="284" y="150" width="150" height="60" as="geometry"/></mxCell><mxCell id="43" style="edgeStyle=orthogonalEdgeStyle;rounded=0;orthogonalLoop=1;jettySize=auto;html=1;startArrow=none;" edge="1" parent="1" source="53" target="40"><mxGeometry relative="1" as="geometry"/></mxCell><mxCell id="44" value="i = 0" style="rounded=0;whiteSpace=wrap;html=1;" vertex="1" parent="1"><mxGeometry x="299" y="260" width="120" height="60" as="geometry"/></mxCell><mxCell id="53" value="j = 0" style="rounded=0;whiteSpace=wrap;html=1;" vertex="1" parent="1"><mxGeometry x="299" y="370" width="120" height="60" as="geometry"/></mxCell><mxCell id="54" value="" style="edgeStyle=orthogonalEdgeStyle;rounded=0;orthogonalLoop=1;jettySize=auto;html=1;endArrow=none;" edge="1" parent="1" source="44" target="53"><mxGeometry relative="1" as="geometry"><mxPoint x="359" y="319.9999999999999" as="sourcePoint"/><mxPoint x="359" y="510" as="targetPoint"/></mxGeometry></mxCell><mxCell id="56" style="edgeStyle=orthogonalEdgeStyle;rounded=0;orthogonalLoop=1;jettySize=auto;html=1;" edge="1" parent="1" source="55" target="37"><mxGeometry relative="1" as="geometry"/></mxCell><mxCell id="55" value="Output intik" style="shape=parallelogram;perimeter=parallelogramPerimeter;whiteSpace=wrap;html=1;fixedSize=1;" vertex="1" parent="1"><mxGeometry x="440" y="520" width="150" height="60" as="geometry"/></mxCell><mxCell id="61" value="YES" style="edgeStyle=orthogonalEdgeStyle;rounded=0;orthogonalLoop=1;jettySize=auto;html=1;" edge="1" parent="1" source="58" target="60"><mxGeometry relative="1" as="geometry"/></mxCell><mxCell id="64" style="edgeStyle=orthogonalEdgeStyle;rounded=0;orthogonalLoop=1;jettySize=auto;html=1;" edge="1" parent="1" source="58" target="63"><mxGeometry relative="1" as="geometry"/></mxCell><mxCell id="66" value="NO" style="edgeLabel;html=1;align=center;verticalAlign=middle;resizable=0;points=[];" vertex="1" connectable="0" parent="64"><mxGeometry x="-0.4083" y="-2" relative="1" as="geometry"><mxPoint as="offset"/></mxGeometry></mxCell><mxCell id="58" value="if j is smaller than size of intik - 1 - i" style="rhombus;whiteSpace=wrap;html=1;" vertex="1" parent="1"><mxGeometry x="190" y="590" width="80" height="80" as="geometry"/></mxCell><mxCell id="68" value="" style="edgeStyle=orthogonalEdgeStyle;rounded=0;orthogonalLoop=1;jettySize=auto;html=1;" edge="1" parent="1" source="60" target="67"><mxGeometry relative="1" as="geometry"/></mxCell><mxCell id="70" value="NO" style="edgeLabel;html=1;align=center;verticalAlign=middle;resizable=0;points=[];" vertex="1" connectable="0" parent="68"><mxGeometry x="-0.5866" y="1" relative="1" as="geometry"><mxPoint as="offset"/></mxGeometry></mxCell><mxCell id="72" value="YES" style="edgeStyle=orthogonalEdgeStyle;rounded=0;orthogonalLoop=1;jettySize=auto;html=1;" edge="1" parent="1" source="60" target="71"><mxGeometry relative="1" as="geometry"/></mxCell><mxCell id="60" value="if j-element of intik is bigger than j+1-element of intik" style="rhombus;whiteSpace=wrap;html=1;" vertex="1" parent="1"><mxGeometry x="190" y="720" width="80" height="80" as="geometry"/></mxCell><mxCell id="65" style="edgeStyle=orthogonalEdgeStyle;rounded=0;orthogonalLoop=1;jettySize=auto;html=1;" edge="1" parent="1" source="63" target="40"><mxGeometry relative="1" as="geometry"><Array as="points"><mxPoint x="310" y="520"/><mxPoint x="310" y="520"/></Array></mxGeometry></mxCell><mxCell id="63" value="i = i + 1" style="rounded=0;whiteSpace=wrap;html=1;" vertex="1" parent="1"><mxGeometry x="170" y="490" width="120" height="60" as="geometry"/></mxCell><mxCell id="69" style="edgeStyle=orthogonalEdgeStyle;rounded=0;orthogonalLoop=1;jettySize=auto;html=1;exitX=0;exitY=0.25;exitDx=0;exitDy=0;" edge="1" parent="1" source="67" target="58"><mxGeometry relative="1" as="geometry"><Array as="points"><mxPoint x="280" y="655"/><mxPoint x="280" y="655"/></Array></mxGeometry></mxCell><mxCell id="67" value="j = j + 1" style="whiteSpace=wrap;html=1;" vertex="1" parent="1"><mxGeometry x="279" y="640" width="120" height="60" as="geometry"/></mxCell><mxCell id="73" style="edgeStyle=orthogonalEdgeStyle;rounded=0;orthogonalLoop=1;jettySize=auto;html=1;entryX=0.75;entryY=1;entryDx=0;entryDy=0;" edge="1" parent="1" source="71" target="67"><mxGeometry relative="1" as="geometry"><Array as="points"><mxPoint x="369" y="870"/></Array></mxGeometry></mxCell><mxCell id="71" value="Swap j-element of intik and j+1-element of intik" style="whiteSpace=wrap;html=1;" vertex="1" parent="1"><mxGeometry x="170" y="840" width="120" height="60" as="geometry"/></mxCell></root></mxGraphModel></diagram></mxfile>